<?xml version="1.0" standalone="no"?>
<!DOCTYPE svg PUBLIC "-//W3C//DTD SVG 20010904//EN"
 "http://www.w3.org/TR/2001/REC-SVG-20010904/DTD/svg10.dtd">
<svg version="1.0" xmlns="http://www.w3.org/2000/svg"
 width="310.000000pt" height="310.000000pt" viewBox="0 0 310.000000 310.000000"
 preserveAspectRatio="xMidYMid meet">
<metadata>
Created by potrace 1.11, written by Peter Selinger 2001-2013
</metadata>
<g transform="translate(0.000000,310.000000) scale(0.100000,-0.100000)"
fill="#000000" stroke="none">
<path d="M356 3029 c-62 -15 -153 -68 -197 -116 -22 -24 -55 -74 -72 -111
l-32 -67 0 -1196 0 -1195 37 -76 c45 -91 103 -147 196 -191 l67 -32 1195 0
1195 0 67 32 c93 44 151 100 196 191 l37 76 0 1195 0 1196 -32 67 c-44 93
-100 151 -191 196 l-76 37 -1175 2 c-689 1 -1192 -3 -1215 -8z m570 -727 c19
-12 34 -49 34 -82 0 -41 -39 -80 -80 -80 -17 0 -39 -9 -50 -20 -19 -19 -20
-33 -20 -232 0 -204 -1 -215 -23 -251 -13 -21 -43 -51 -66 -67 l-44 -28 29
-15 c38 -20 80 -65 93 -100 7 -17 11 -114 11 -237 0 -235 -1 -232 76 -251 52
-13 74 -40 74 -87 0 -76 -42 -101 -129 -76 -41 12 -67 27 -98 60 -63 65 -73
111 -73 336 l0 188 -55 36 c-130 86 -121 234 19 309 l34 19 4 205 c4 227 8
246 69 316 19 21 47 44 64 51 33 14 113 18 131 6z m1422 -19 c46 -34 90 -100
101 -153 6 -28 11 -131 11 -228 l0 -177 36 -20 c140 -75 149 -222 19 -309
l-55 -36 0 -188 c0 -225 -10 -271 -73 -336 -31 -33 -57 -48 -98 -60 -87 -25
-129 0 -129 76 0 47 22 74 74 87 77 19 76 16 76 251 0 123 4 220 11 237 13 35
55 80 93 100 l29 15 -44 28 c-23 16 -53 46 -66 67 -22 36 -23 47 -23 251 0
199 -1 213 -20 232 -11 11 -33 20 -50 20 -41 0 -80 39 -80 80 0 33 15 69 34
83 21 15 125 2 154 -20z m-616 -375 c53 -16 122 -78 144 -130 15 -36 19 -78
22 -265 l4 -223 32 0 c67 0 102 -61 54 -94 -18 -13 -51 -16 -153 -16 -144 0
-155 4 -155 57 0 37 21 53 70 53 l31 0 -3 203 c-3 182 -5 206 -23 237 -60 102
-236 89 -308 -23 -27 -41 -27 -42 -27 -229 l0 -188 31 0 c49 0 69 -16 69 -55
0 -24 -6 -38 -19 -45 -11 -5 -76 -10 -145 -10 -113 0 -128 2 -146 20 -11 11
-20 27 -20 35 0 27 38 55 75 55 l35 0 0 249 0 248 -42 6 c-61 8 -88 55 -52 91
12 12 37 16 103 16 95 0 111 -7 111 -52 l0 -29 38 31 c78 62 185 85 274 58z"/>
</g>
</svg>
